<svg width="30" height="30" viewBox="0 0 30 30" xmlns="http://www.w3.org/2000/svg">
<g clip-path="url(#clip0_1_196)">
<g filter="url(#filter0_d_1_196)">
<path d="M26.543 6.60937L15.293 2.85937C15.1021 2.80062 14.8979 2.80062 14.707 2.85937L3.46874 6.60937H3.44531L3.32812 6.66796H3.3164L3.19921 6.73827C3.19921 6.74999 3.18749 6.74999 3.17577 6.76171L3.08202 6.84374L2.99999 6.93749C2.99999 6.94921 2.98827 6.94921 2.98827 6.96093L2.91796 7.0664C2.91796 7.07812 2.91796 7.07812 2.90624 7.08983L2.85937 7.1953L2.82421 7.32421V7.35937C2.81265 7.40529 2.80869 7.45279 2.81249 7.49999V16.875C2.81249 17.1236 2.91127 17.3621 3.08708 17.5379C3.2629 17.7137 3.50135 17.8125 3.74999 17.8125C3.99863 17.8125 4.23709 17.7137 4.41291 17.5379C4.58872 17.3621 4.68749 17.1236 4.68749 16.875V8.80077L8.62499 10.1133C7.88526 11.2973 7.49527 12.6664 7.49999 14.0625C7.50042 15.3322 7.82321 16.5811 8.43811 17.692C9.05301 18.8029 9.93988 19.7395 11.0156 20.4141C8.78015 21.2597 6.8717 22.7947 5.5664 24.7969C5.43335 25.0073 5.38828 25.2615 5.44088 25.5048C5.49349 25.7481 5.63957 25.961 5.84765 26.0976C5.94976 26.1653 6.06429 26.212 6.18459 26.2351C6.30488 26.2582 6.42857 26.2572 6.54847 26.2321C6.66837 26.207 6.7821 26.1584 6.88308 26.0891C6.98405 26.0197 7.07026 25.931 7.13671 25.8281C7.98764 24.5174 9.15273 23.4401 10.526 22.6944C11.8993 21.9486 13.4373 21.558 15 21.558C16.5627 21.558 18.1007 21.9486 19.474 22.6944C20.8473 23.4401 22.0123 24.5174 22.8633 25.8281C22.9489 25.9581 23.0654 26.0647 23.2025 26.1383C23.3396 26.212 23.4928 26.2504 23.6484 26.25C23.828 26.2519 24.0039 26.1987 24.1523 26.0976C24.3604 25.961 24.5065 25.7481 24.5591 25.5048C24.6117 25.2615 24.5666 25.0073 24.4336 24.7969C23.1283 22.7947 21.2198 21.2597 18.9844 20.4141C20.0601 19.7395 20.947 18.8029 21.5619 17.692C22.1768 16.5811 22.4996 15.3322 22.5 14.0625C22.5047 12.6664 22.1147 11.2973 21.375 10.1133L26.543 8.39062C26.7305 8.32897 26.8938 8.20968 27.0096 8.04975C27.1254 7.88982 27.1877 7.69743 27.1877 7.49999C27.1877 7.30256 27.1254 7.11016 27.0096 6.95023C26.8938 6.79031 26.7305 6.67102 26.543 6.60937ZM15 19.6875C13.5081 19.6875 12.0774 19.0949 11.0225 18.04C9.96762 16.9851 9.37499 15.5543 9.37499 14.0625C9.37725 12.8622 9.75869 11.6933 10.4648 10.7226L14.707 12.1406C14.8973 12.2032 15.1027 12.2032 15.293 12.1406L19.5351 10.7226C20.2413 11.6933 20.6227 12.8622 20.625 14.0625C20.625 15.5543 20.0324 16.9851 18.9775 18.04C17.9226 19.0949 16.4918 19.6875 15 19.6875Z" fill="#FDFDF5"/>
</g>
</g>
<defs>
<filter id="filter0_d_1_196" x="-1.1889" y="2.81531" width="32.3766" height="31.4364" filterUnits="userSpaceOnUse" color-interpolation-filters="sRGB">
<feFlood flood-opacity="0" result="BackgroundImageFix"/>
<feColorMatrix in="SourceAlpha" type="matrix" values="0 0 0 0 0 0 0 0 0 0 0 0 0 0 0 0 0 0 127 0" result="hardAlpha"/>
<feOffset dy="4"/>
<feGaussianBlur stdDeviation="2"/>
<feComposite in2="hardAlpha" operator="out"/>
<feColorMatrix type="matrix" values="0 0 0 0 0 0 0 0 0 0 0 0 0 0 0 0 0 0 0.2 0"/>
<feBlend mode="normal" in2="BackgroundImageFix" result="effect1_dropShadow_1_196"/>
<feBlend mode="normal" in="SourceGraphic" in2="effect1_dropShadow_1_196" result="shape"/>
</filter>
<clipPath id="clip0_1_196">
<rect width="30" height="30" fill="white"/>
</clipPath>
</defs>
</svg>
