<svg width="30" height="30" viewBox="0 0 30 30" xmlns="http://www.w3.org/2000/svg">
<path  fill-rule="evenodd" clip-rule="evenodd" d="M3.75 3.75H23.125V6.875H21.875V5H5V19.375H18.3669V20.625H3.75V3.75ZM22.5 11.875C22.9973 11.875 23.4742 11.6775 23.8258 11.3258C24.1775 10.9742 24.375 10.4973 24.375 10C24.375 9.50272 24.1775 9.02581 23.8258 8.67417C23.4742 8.32254 22.9973 8.125 22.5 8.125C22.0027 8.125 21.5258 8.32254 21.1742 8.67417C20.8225 9.02581 20.625 9.50272 20.625 10C20.625 10.4973 20.8225 10.9742 21.1742 11.3258C21.5258 11.6775 22.0027 11.875 22.5 11.875ZM23.7694 13.1313C24.5812 13.1313 25.2237 13.4963 25.6444 14.06C26.0375 14.5881 26.2037 15.2413 26.2412 15.8444C26.278 16.4631 26.1937 17.083 25.9931 17.6694C25.8056 18.2131 25.4887 18.7756 25 19.1613V25.3125C25.0005 25.548 24.9122 25.7751 24.7529 25.9486C24.5935 26.122 24.3747 26.2291 24.1399 26.2486C23.9052 26.2681 23.6717 26.1984 23.486 26.0536C23.3002 25.9087 23.1758 25.6993 23.1375 25.4669L22.3312 20.625H22.145L21.2337 25.485C21.1905 25.7144 21.0632 25.9194 20.8768 26.0599C20.6904 26.2004 20.4583 26.2663 20.2259 26.2447C19.9934 26.2231 19.7774 26.1156 19.6201 25.9432C19.4627 25.7708 19.3753 25.5459 19.375 25.3125V16.3956C19.25 16.586 19.1267 16.7775 19.005 16.97L18.9562 17.0469L18.9437 17.0669L18.9406 17.0725C18.8564 17.2077 18.7391 17.3193 18.5998 17.3966C18.4604 17.4739 18.3037 17.5145 18.1444 17.5144H15.0194C14.7707 17.5144 14.5323 17.4156 14.3565 17.2398C14.1806 17.064 14.0819 16.8255 14.0819 16.5769C14.0819 16.3282 14.1806 16.0898 14.3565 15.914C14.5323 15.7381 14.7707 15.6394 15.0194 15.6394H17.63C17.7819 15.4044 17.9819 15.0994 18.1919 14.7931C18.4106 14.4738 18.6519 14.1356 18.8669 13.8706C18.9712 13.7413 19.0881 13.6062 19.2056 13.4956C19.2631 13.4412 19.3431 13.3706 19.4406 13.3081C19.6127 13.1952 19.8136 13.134 20.0194 13.1319H23.7694V13.1313Z" fill="#FDFDF5"/>
</svg>
