<svg xmlns="http://www.w3.org/2000/svg"
    width="103"
    height="96"
    viewBox="0 0 103 96">
  <path
      d="M50,14.336c-9.557,0-11.465,14.069-5.809,19.744c0.591,0.593,1.536-0.166,1.086-0.872
       C42.275,28.49,44.737,20.636,50,20.645c5.263-0.009,7.725,7.845,4.723,12.562c-0.45,0.707,0.495,1.466,1.086,0.872
       C61.465,28.405,59.557,14.336,50,14.336z"
      fill="#000000"/>
  <path
      d="M50.023,52.662c8.141,0,20.761-8.777,13.741-23.499c-0.393-0.824,0.732-1.517,1.283-0.79
       c11.625,15.355-1.063,32.072-15.024,32.072h-0.045c-13.961,0-26.649-16.717-15.024-32.072c0.551-0.728,1.676-0.034,1.283,0.79
       C29.217,43.886,42.063,52.662,50.023,52.662L50.023,52.662z"
      fill="#000000"/>
  <path
      d="M60.879,65.505c9.612-4.494,19.223-0.315,19.223,9.098c0,6.348-5.974,14.285-15.584,9.534
       c-0.664-0.328-0.323-1.321,0.405-1.183c5.695,1.082,9.701-2.839,9.701-7.259c0-6.563-7.359-6.012-11.733-3.508L39.121,83.852
       c-9.612,4.494-19.223,0.315-19.223-9.098c0-6.348,5.974-14.285,15.584-9.534c0.664,0.328,0.323,1.321-0.405,1.183
       c-5.695-1.082-9.701,2.839-9.701,7.259c0,6.563,7.359,6.012,11.733,3.508l23.771-11.667L60.879,65.505z"
      fill="#000000"/>
</svg>
